<svg id="Layer_1" data-name="Layer 1" xmlns="http://www.w3.org/2000/svg" viewBox="0 0 238.51 238.49"><defs><style>.cls-1{fill:none;stroke:#231f20;stroke-linecap:round;stroke-linejoin:round;stroke-width:9px;}</style></defs><title>Icon_2</title><path class="cls-1" d="M150.35,199.78c11.66,8,26,1.62,21.26-28.76,30.38,4.77,36.78-9.6,28.76-21.26a53,53,0,0,0-12.68-12.89,58.08,58.08,0,0,0-23.22-9.58h0a31.27,31.27,0,0,0-36.58,36.58h0a58.08,58.08,0,0,0,9.58,23.22A53,53,0,0,0,150.35,199.78Z"/><path class="cls-1" d="M38.13,87.56c-8-11.66-1.62-26,28.76-21.26-4.77-30.38,9.6-36.78,21.26-28.76A53,53,0,0,1,101,50.22a58.08,58.08,0,0,1,9.58,23.22h0A31.27,31.27,0,0,1,74,110h0a58.08,58.08,0,0,1-23.22-9.58A53,53,0,0,1,38.13,87.56Z"/><path class="cls-1" d="M38.13,149.76c-8,11.66-1.62,26,28.76,21.26-4.77,30.38,9.6,36.78,21.26,28.76A53,53,0,0,0,101,187.1a58.08,58.08,0,0,0,9.58-23.22h0A31.27,31.27,0,0,0,74,127.29h0a58.08,58.08,0,0,0-23.22,9.58A53,53,0,0,0,38.13,149.76Z"/><path class="cls-1" d="M150.35,37.54c11.66-8,26-1.62,21.26,28.76,30.38-4.77,36.78,9.6,28.76,21.26a53,53,0,0,1-12.68,12.89A58.08,58.08,0,0,1,164.47,110h0a31.27,31.27,0,0,1-36.58-36.58h0a58.08,58.08,0,0,1,9.58-23.22A53,53,0,0,1,150.35,37.54Z"/><rect class="cls-1" x="193.52" y="111.17" width="16.15" height="16.15" transform="translate(143.36 -107.62) rotate(45)"/><rect class="cls-1" x="111.18" y="28.83" width="16.15" height="16.15" transform="translate(8.84 95.13) rotate(-45)"/><rect class="cls-1" x="28.84" y="111.17" width="16.15" height="16.15" transform="translate(-21.31 229.66) rotate(-135)"/><rect class="cls-1" x="111.18" y="193.51" width="16.15" height="16.15" transform="translate(346.12 259.8) rotate(135)"/></svg>