<?xml version="1.0" encoding="utf-8"?>
<!-- Generator: Adobe Illustrator 16.0.0, SVG Export Plug-In . SVG Version: 6.00 Build 0)  -->
<svg version="1.2" baseProfile="tiny" id="Layer_1" xmlns="http://www.w3.org/2000/svg" xmlns:xlink="http://www.w3.org/1999/xlink"
	 x="0px" y="0px" width="841.889px" height="595.281px" viewBox="0 0 841.889 595.281" xml:space="preserve">
<title>Icon_2</title>
<path fill="#FFFFFF" d="M498.559,498.659c29.104,19.968,64.897,4.044,53.065-71.786c75.83,11.906,91.805-23.962,71.786-53.065
	c-8.629-12.459-19.334-23.342-31.649-32.174c-17.344-12.104-37.126-20.265-57.958-23.912l0,0
	c-42.342-8.085-83.22,19.685-91.305,62.026c-1.848,9.672-1.848,19.606,0,29.278l0,0c3.647,20.832,11.809,40.614,23.912,57.958
	C475.233,479.306,486.108,490.02,498.559,498.659z"/>
<path fill="#FFFFFF" d="M218.453,218.553c-19.968-29.104-4.043-64.897,71.786-53.066c-11.906-75.829,23.962-91.804,53.066-71.786
	c12.422,8.639,23.271,19.344,32.073,31.65c12.104,17.344,20.265,37.126,23.912,57.958l0,0c8.057,42.347-19.741,83.207-62.088,91.263
	c-9.652,1.837-19.565,1.834-29.217-0.008l0,0c-20.832-3.647-40.614-11.809-57.958-23.912
	C237.746,241.836,227.067,230.978,218.453,218.553z"/>
<path fill="#FFFFFF" d="M218.453,373.807c-19.968,29.104-4.043,64.896,71.786,53.065c-11.906,75.83,23.962,91.805,53.066,71.786
	c12.422-8.638,23.271-19.344,32.073-31.649c12.104-17.345,20.265-37.126,23.912-57.958l0,0c8.1-42.339-19.657-83.228-61.996-91.326
	c-9.682-1.853-19.626-1.854-29.309-0.004l0,0c-20.832,3.647-40.614,11.809-57.958,23.911
	C237.74,350.472,227.061,361.355,218.453,373.807z"/>
<path fill="#FFFFFF" d="M498.559,93.701c29.104-19.968,64.897-4.043,53.065,71.786c75.83-11.906,91.805,23.962,71.786,53.066
	c-8.629,12.458-19.334,23.341-31.649,32.174c-17.351,12.076-37.132,20.212-57.958,23.837l0,0
	c-42.342,8.085-83.22-19.686-91.305-62.026c-1.848-9.673-1.848-19.606,0-29.278l0,0c3.647-20.833,11.809-40.614,23.912-57.958
	C475.24,113.007,486.114,102.318,498.559,93.701z"/>
<rect x="606.301" y="277.493" transform="matrix(-0.7071 -0.7071 0.7071 -0.7071 858.97 951.0848)" fill="#FFFFFF" width="40.311" height="40.311"/>
<rect x="400.806" y="71.948" transform="matrix(-0.7071 0.7071 -0.7071 -0.7071 783.7534 -140.4347)" fill="#FFFFFF" width="40.311" height="40.311"/>
<rect x="195.243" y="277.468" transform="matrix(0.7071 0.7071 -0.7071 0.7071 273.5464 -65.137)" fill="#FFFFFF" width="40.311" height="40.311"/>
<rect x="400.781" y="483.007" transform="matrix(0.7071 -0.7071 0.7071 0.7071 -232.4996 445.02)" fill="#FFFFFF" width="40.311" height="40.311"/>
</svg>
