<svg id="Layer_1" data-name="Layer 1" xmlns="http://www.w3.org/2000/svg" viewBox="0 0 238.51 238.49"><defs><style>.cls-1{fill:none;stroke:#231f20;stroke-linecap:round;stroke-linejoin:round;stroke-width:9px;}</style></defs><title>Icon_2</title><path class="cls-1" d="M194.66,199.24,34.29,188.36a3.2,3.2,0,0,1-2.93-3.44L40.51,42.27a3.18,3.18,0,0,1,3.34-3L204.22,50.13a3.2,3.2,0,0,1,2.93,3.44L198,196.22A3.18,3.18,0,0,1,194.66,199.24Z"/><polygon class="cls-1" points="183.16 152.79 51.1 143.83 56.66 57.13 188.72 66.09 183.16 152.79"/><path class="cls-1" d="M84.85,146.12s31.51-56.77,102.22-54.22"/><path class="cls-1" d="M53.59,105s24.91,29.18,51,17.34"/></svg>